<?xml version="1.0" encoding="UTF-8"?>
<svg version="1.1" xmlns="http://www.w3.org/2000/svg" width="504" height="495">
<path d="M0 0 C1.69902256 1.32854125 3.4225085 2.62762932 5.1875 3.8671875 C5.72375 4.30675781 6.26 4.74632812 6.8125 5.19921875 C6.8125 5.85921875 6.8125 6.51921875 6.8125 7.19921875 C7.4012793 7.46347656 7.99005859 7.72773437 8.59667969 8 C10.89322584 9.24290819 12.42083166 10.54928356 14.265625 12.38671875 C14.884375 13.00289062 15.503125 13.6190625 16.140625 14.25390625 C16.77484375 14.89585938 17.4090625 15.5378125 18.0625 16.19921875 C18.7121875 16.84117188 19.361875 17.483125 20.03125 18.14453125 C20.64484375 18.76070312 21.2584375 19.376875 21.890625 20.01171875 C22.45168945 20.57503906 23.01275391 21.13835937 23.59082031 21.71875 C24.8125 23.19921875 24.8125 23.19921875 24.8125 25.19921875 C25.8025 25.52921875 26.7925 25.85921875 27.8125 26.19921875 C27.8125 26.85921875 27.8125 27.51921875 27.8125 28.19921875 C28.4725 28.19921875 29.1325 28.19921875 29.8125 28.19921875 C31.59181653 30.37089739 33.24467474 32.54387456 34.875 34.82421875 C35.61036987 35.8443103 35.61036987 35.8443103 36.3605957 36.88500977 C44.66556405 48.50066068 51.73381711 60.27259816 57.8125 73.19921875 C58.11929687 73.83553223 58.42609375 74.4718457 58.7421875 75.12744141 C81.54327065 122.61751791 80.36734543 179.07305141 63.8125 228.19921875 C57.94264823 244.13645161 49.56852299 259.33203324 39.8125 273.19921875 C39.11898438 274.29621094 38.42546875 275.39320313 37.7109375 276.5234375 C37.08445312 277.40644531 36.45796875 278.28945313 35.8125 279.19921875 C35.1525 279.19921875 34.4925 279.19921875 33.8125 279.19921875 C33.565 279.75351562 33.3175 280.3078125 33.0625 280.87890625 C26.88231888 292.35086745 14.90262643 304.35010181 3.8125 311.19921875 C2.8225 311.19921875 1.8325 311.19921875 0.8125 311.19921875 C3.3035727 285.21339724 12.10821422 260.22234537 23.90795898 237.08666992 C24.92996445 235.05486646 24.92996445 235.05486646 25.8125 232.19921875 C10.45167496 245.47558945 -2.1069113 260.98300747 -11.1875 279.19921875 C-11.67476563 280.11445313 -12.16203125 281.0296875 -12.6640625 281.97265625 C-20.30775672 296.59367136 -25.8012533 311.83214874 -26.5 328.44921875 C-26.69140625 331.0703125 -26.69140625 331.0703125 -27.1875 333.19921875 C-29.9375 335.51171875 -29.9375 335.51171875 -33.1875 336.19921875 C-37.84862093 334.9836108 -40.6056102 332.1087417 -43.8125 328.69921875 C-46.47906312 325.91013787 -48.95298368 323.35556296 -52.1875 321.19921875 C-52.1875 320.53921875 -52.1875 319.87921875 -52.1875 319.19921875 C-52.8475 319.52921875 -53.5075 319.85921875 -54.1875 320.19921875 C-53.93355469 320.72128906 -53.67960937 321.24335938 -53.41796875 321.78125 C-50.61640399 327.77261134 -48.77008288 333.78496237 -47.1875 340.19921875 C-50.62772728 343.27962634 -54.29229604 344.24744091 -58.6875 345.26171875 C-59.39874023 345.4309082 -60.10998047 345.60009766 -60.84277344 345.77441406 C-71.07077951 348.16018267 -80.66078164 349.4736623 -91.1875 349.19921875 C-89.98504491 340.87474361 -88.16420362 332.93918986 -85.75 324.88671875 C-85.45029297 323.85482422 -85.15058594 322.82292969 -84.84179688 321.75976562 C-83.25862871 316.39897278 -81.52907096 311.27620287 -79.1875 306.19921875 C-78.1975 306.52921875 -77.2075 306.85921875 -76.1875 307.19921875 C-76.1875 310.49921875 -76.1875 313.79921875 -76.1875 317.19921875 C-75.5275 317.19921875 -74.8675 317.19921875 -74.1875 317.19921875 C-72.0452479 310.90920196 -69.98709877 304.59674526 -68.1875 298.19921875 C-67.83558594 297.00296875 -67.48367188 295.80671875 -67.12109375 294.57421875 C-65.87334723 289.48990433 -65.80551508 284.47639881 -65.8125 279.26171875 C-65.81056641 277.76112915 -65.81056641 277.76112915 -65.80859375 276.23022461 C-65.93596992 267.15250155 -67.58268298 258.86256109 -70.1875 250.19921875 C-69.1975 250.19921875 -68.2075 250.19921875 -67.1875 250.19921875 C-65.92895508 251.75976563 -65.92895508 251.75976563 -64.70703125 253.91796875 C-64.26552734 254.68496094 -63.82402344 255.45195312 -63.36914062 256.2421875 C-62.91732422 257.05300781 -62.46550781 257.86382812 -62 258.69921875 C-61.53658203 259.51003906 -61.07316406 260.32085937 -60.59570312 261.15625 C-59.44948171 263.16509166 -58.31406228 265.1793068 -57.1875 267.19921875 C-56.57017008 250.30838619 -59.17431743 237.0608616 -65.13671875 221.22265625 C-66.06885746 218.5405917 -66.71483782 215.99363911 -67.1875 213.19921875 C-63.30352311 214.74924622 -61.15770381 217.20398496 -58.4375 220.32421875 C-57.63828125 221.23429687 -56.8390625 222.144375 -56.015625 223.08203125 C-55.41234375 223.78070313 -54.8090625 224.479375 -54.1875 225.19921875 C-56.45868992 209.78097825 -60.1486791 194.64968592 -69.8671875 182.015625 C-71.1875 180.19921875 -71.1875 180.19921875 -71.1875 178.19921875 C-68.8775 178.52921875 -66.5675 178.85921875 -64.1875 179.19921875 C-64.1875 179.85921875 -64.1875 180.51921875 -64.1875 181.19921875 C-63.1975 180.86921875 -62.2075 180.53921875 -61.1875 180.19921875 C-61.89326172 179.01779297 -61.89326172 179.01779297 -62.61328125 177.8125 C-68.33226297 167.80724213 -73.26917525 156.92869586 -70.1875 145.19921875 C-67.57625953 138.3275333 -62.80019258 132.47466461 -56.1875 129.19921875 C-52.90912845 128.21357656 -49.58832159 127.45295487 -46.25 126.69921875 C-36.39590779 124.60453611 -36.39590779 124.60453611 -28.0625 119.19921875 C-25.82313068 115.61622784 -24.60790155 112.01721978 -23.26953125 108.0234375 C-22.23588929 105.32552005 -21.00048884 103.17884798 -19.4375 100.76171875 C-14.99323731 92.99797589 -17.01798028 84.07711458 -18.375 75.63671875 C-18.47554688 74.94570068 -18.57609375 74.25468262 -18.6796875 73.54272461 C-19.2742263 70.31471453 -19.77500176 68.54121729 -22.3359375 66.41796875 C-26.38081485 64.68919925 -30.45080128 63.07077364 -34.57226562 61.53710938 C-38.87381909 59.88199388 -42.51492837 58.00899148 -46.1875 55.19921875 C-46.1875 54.53921875 -46.1875 53.87921875 -46.1875 53.19921875 C-46.8475 53.19921875 -47.5075 53.19921875 -48.1875 53.19921875 C-49.44841435 51.3167269 -50.6460914 49.39168407 -51.8125 47.44921875 C-55.44793454 41.92802405 -57.87512382 39.06880787 -64.1875 37.19921875 C-65.32703125 36.85632813 -66.4665625 36.5134375 -67.640625 36.16015625 C-74.38622681 34.2251698 -81.1649227 32.7092525 -88.11328125 31.69140625 C-90.1875 31.19921875 -90.1875 31.19921875 -92.1875 29.19921875 C-92.47313094 26.65209752 -92.65292078 24.191496 -92.75 21.63671875 C-92.82126379 20.18741778 -92.89417181 18.7381967 -92.96875 17.2890625 C-93.00355469 16.58765137 -93.03835938 15.88624023 -93.07421875 15.16357422 C-93.28618858 11.48790768 -93.73100773 7.85115688 -94.1875 4.19921875 C-104.37399892 7.74469629 -110.6627551 16.72007648 -116.60791016 25.2331543 C-120.01704769 30.1139926 -120.01704769 30.1139926 -122.1875 31.19921875 C-141.23338026 31.08991671 -152.97683044 22.66138518 -166.70605469 10.46728516 C-168.30040941 9.06672875 -168.30040941 9.06672875 -170.6015625 7.4609375 C-171.12492188 7.04457031 -171.64828125 6.62820312 -172.1875 6.19921875 C-172.1875 5.53921875 -172.1875 4.87921875 -172.1875 4.19921875 C-173.04794922 3.80089844 -173.04794922 3.80089844 -173.92578125 3.39453125 C-176.28258323 2.14896751 -178.2487675 0.6776072 -180.375 -0.92578125 C-185.20492225 -4.23130943 -188.43792381 -4.34835993 -194.1875 -3.80078125 C-203.96219473 11.3668485 -202.92684178 30.49113869 -201.6875 47.82421875 C-201.60628906 49.07589844 -201.52507812 50.32757813 -201.44140625 51.6171875 C-201.28443828 53.83164326 -201.09120166 56.04426374 -200.83984375 58.25 C-199.81380661 72.03620806 -209.28905027 83.9872131 -217.18359375 94.50390625 C-219.15951953 96.99762079 -219.15951953 96.99762079 -220.1875 99.19921875 C-219.63320312 99.04324219 -219.07890625 98.88726562 -218.5078125 98.7265625 C-217.78335938 98.53191406 -217.05890625 98.33726562 -216.3125 98.13671875 C-215.59320313 97.93949219 -214.87390625 97.74226562 -214.1328125 97.5390625 C-212.1875 97.19921875 -212.1875 97.19921875 -210.1875 98.19921875 C-211.36030713 100.61663753 -212.61230947 102.9608141 -213.921875 105.30859375 C-217.61723026 111.94425032 -220.94128278 118.58619547 -223.625 125.69921875 C-223.8715332 126.3447168 -224.11806641 126.99021484 -224.37207031 127.65527344 C-225.90063906 131.85829391 -226.69255473 135.78453446 -227.1875 140.19921875 C-226.259375 139.45671875 -226.259375 139.45671875 -225.3125 138.69921875 C-223.1875 137.19921875 -223.1875 137.19921875 -221.1875 137.19921875 C-220.8575 136.20921875 -220.5275 135.21921875 -220.1875 134.19921875 C-218.125 133.51171875 -218.125 133.51171875 -216.1875 133.19921875 C-216.86314394 139.49060452 -218.53342321 145.34369148 -220.375 151.38671875 C-220.83821655 152.91341187 -220.83821655 152.91341187 -221.31079102 154.47094727 C-223.60372848 161.81057502 -226.28282673 168.54840164 -230.1875 175.19921875 C-227.44900756 174.14418816 -225.01932098 173.09752911 -222.5 171.57421875 C-220.1875 170.19921875 -220.1875 170.19921875 -218.1875 170.19921875 C-218.98785922 177.06131502 -223.48430085 182.75753036 -227.10644531 188.46826172 C-227.96063778 189.83597279 -228.76679607 191.23367602 -229.5546875 192.640625 C-233.75608522 199.43700366 -241.19019021 202.53634734 -248.06494141 206.09667969 C-250.08030836 207.14353926 -252.07919866 208.21574346 -254.07421875 209.30078125 C-259.02950192 211.98834887 -264.00078325 214.63079944 -269.0625 217.11328125 C-269.6920459 217.42249512 -270.3215918 217.73170898 -270.97021484 218.05029297 C-272.69809746 218.8933971 -274.43091752 219.72636096 -276.1640625 220.55859375 C-279.14879271 222.17821479 -281.61151206 223.99670118 -284.1875 226.19921875 C-283.259375 226.01359375 -282.33125 225.82796875 -281.375 225.63671875 C-278.1875 225.19921875 -278.1875 225.19921875 -275.1875 226.19921875 C-276.32886847 229.62332417 -276.71772489 229.7956971 -279.73046875 231.43359375 C-280.46821533 231.83980957 -281.20596191 232.24602539 -281.96606445 232.66455078 C-283.15848755 233.30046143 -283.15848755 233.30046143 -284.375 233.94921875 C-285.18348389 234.38733887 -285.99196777 234.82545898 -286.82495117 235.27685547 C-289.2729913 236.59619894 -291.72912211 237.89925984 -294.1875 239.19921875 C-294.89422852 239.57788086 -295.60095703 239.95654297 -296.32910156 240.34667969 C-298.2127126 241.35268872 -300.1037568 242.34226807 -302 243.32421875 C-303.07894531 243.88367188 -304.15789062 244.443125 -305.26953125 245.01953125 C-308.18273369 246.19729181 -310.08553156 246.46297207 -313.1875 246.19921875 C-318.47792883 236.46357752 -322.31193553 226.71096074 -325.58251953 216.13916016 C-326.07418691 214.56257059 -326.59355687 212.99464 -327.12109375 211.4296875 C-335.90236057 184.7218967 -336.44721999 149.79998241 -331.1875 122.19921875 C-331.03152344 121.36841797 -330.87554687 120.53761719 -330.71484375 119.68164062 C-325.5998502 93.32995164 -315.49205144 68.30579306 -300.1875 46.19921875 C-299.43736273 45.08169399 -298.68867531 43.96319471 -297.94140625 42.84375 C-293.13046498 35.69395434 -288.12839571 28.46667533 -282.1875 22.19921875 C-281.5275 22.19921875 -280.8675 22.19921875 -280.1875 22.19921875 C-279.6925 20.71421875 -279.6925 20.71421875 -279.1875 19.19921875 C-278.5275 19.19921875 -277.8675 19.19921875 -277.1875 19.19921875 C-276.94 18.58046875 -276.6925 17.96171875 -276.4375 17.32421875 C-274.95979238 14.81211579 -273.74794823 14.43814531 -271.1875 13.19921875 C-270.8575 12.20921875 -270.5275 11.21921875 -270.1875 10.19921875 C-268.49368696 8.65603003 -266.73307498 7.18521603 -264.9375 5.76171875 C-263.98359375 4.99988281 -263.0296875 4.23804688 -262.046875 3.453125 C-261.10328125 2.70933594 -260.1596875 1.96554688 -259.1875 1.19921875 C-258.28515625 0.44511719 -257.3828125 -0.30898437 -256.453125 -1.0859375 C-254.1875 -2.80078125 -254.1875 -2.80078125 -252.1875 -2.80078125 C-252.1875 -3.46078125 -252.1875 -4.12078125 -252.1875 -4.80078125 C-250.13271291 -6.29323755 -248.09166259 -7.65265016 -245.9375 -8.98828125 C-245.30142822 -9.38829346 -244.66535645 -9.78830566 -244.01000977 -10.20043945 C-242.0751551 -11.41053734 -240.13286346 -12.60766531 -238.1875 -13.80078125 C-237.14980469 -14.44015625 -236.11210937 -15.07953125 -235.04296875 -15.73828125 C-213.18801066 -28.84540471 -187.38784101 -37.91960075 -162.1875 -41.80078125 C-160.93710938 -42.00445312 -159.68671875 -42.208125 -158.3984375 -42.41796875 C-101.85920132 -50.64482942 -44.76148788 -35.0457614 0 0 Z " fill="#FBFAFA" transform="translate(387.1875,102.80078125)"/>
<path d="M0 0 C0.99 0.33 1.98 0.66 3 1 C2.3292621 8.1497016 1.65320116 15.29888627 0.97363281 22.44775391 C0.74359801 24.87407333 0.51473178 27.30050386 0.28710938 29.72705078 C-2.14128098 55.59792872 -2.14128098 55.59792872 -4 67 C-4.99 67 -5.98 67 -7 67 C-13.058629 46.65077714 -7.45425738 19.44588882 0 0 Z " fill="#E0DBDB" transform="translate(272,423)"/>
<path d="M0 0 C2.85557884 2.50580959 5.6336478 5.02103885 8 8 C8 8.99 8 9.98 8 11 C0.31008478 11.41959663 -6.08876468 9.93898499 -13.4375 7.75 C-14.52482422 7.44964844 -15.61214844 7.14929688 -16.73242188 6.83984375 C-17.76818359 6.53691406 -18.80394531 6.23398438 -19.87109375 5.921875 C-20.80880615 5.64956055 -21.74651855 5.37724609 -22.71264648 5.09667969 C-25.41732068 3.79991413 -25.99815176 2.77191212 -27 0 C-19.44409917 -4.35917355 -7.22235558 -5.1358973 0 0 Z " fill="#D7D4D4" transform="translate(317,157)"/>
<path d="M0 0 C5.40776804 1.23586618 9.1702996 3.17537774 13.5 6.6875 C14.06533447 7.13593262 14.63066895 7.58436523 15.21313477 8.04638672 C23.74252277 14.90081937 31.70484025 22.73934061 36 33 C36 33.99 36 34.98 36 36 C34.68 35.34 33.36 34.68 32 34 C32 33.34 32 32.68 32 32 C31.01 31.67 30.02 31.34 29 31 C27.59765625 29.57421875 27.59765625 29.57421875 26.0625 27.6875 C19.30670174 19.74371179 12.02239147 11.91745769 3.328125 6.0859375 C2.88984375 5.72757812 2.4515625 5.36921875 2 5 C2 4.34 2 3.68 2 3 C1.34 3 0.68 3 0 3 C0 2.01 0 1.02 0 0 Z " fill="#8A8685" transform="translate(155,359)"/>
<path d="M0 0 C12.68966197 0.82758665 24.17704995 9.74054695 32.60546875 18.80078125 C38 25.39834071 38 25.39834071 38 28 C34.55940129 27.41003391 32.84059994 26.22936947 30.31640625 23.85546875 C26.07258606 20.00665104 21.59440201 16.64224419 16.9375 13.3125 C16.17373047 12.75755859 15.40996094 12.20261719 14.62304688 11.63085938 C11.16719412 9.14465564 7.75632419 6.809379 4.00390625 4.79296875 C1 3 1 3 0 0 Z " fill="#BEBBB9" transform="translate(118,415)"/>
<path d="M0 0 C0.99 0 1.98 0 3 0 C4.70694877 2.47640237 6.21370012 4.8908806 7.6875 7.5 C8.10322266 8.21542969 8.51894531 8.93085938 8.94726562 9.66796875 C9.974798 11.43957629 10.98869236 13.21908088 12 15 C11.01 15.33 10.02 15.66 9 16 C9 15.01 9 14.02 9 13 C8.01 13 7.02 13 6 13 C6.16113281 14.00289063 6.32226562 15.00578125 6.48828125 16.0390625 C7.70972343 25.49358444 7.58035454 34.80748694 5 44 C4.0974264 40.95036206 3.92629902 38.34729922 4.04296875 35.17578125 C4.35774165 22.7815983 3.57489608 11.88972134 0 0 Z " fill="#A5A1A1" transform="translate(317,353)"/>
<path d="M0 0 C4.13136459 0.49350771 5.8031717 1.37571448 8.375 4.625 C10.68522134 7.43744337 13.0170154 10.08504978 15.625 12.625 C18.64657781 15.6056535 21.41410915 18.63050586 24 22 C24 22.66 24 23.32 24 24 C21.03824877 23.38722388 19.61941217 22.74627478 17 21 C17 20.34 17 19.68 17 19 C15.68 18.34 14.36 17.68 13 17 C13 16.34 13 15.68 13 15 C12.34 15 11.68 15 11 15 C11 14.34 11 13.68 11 13 C10.34 13 9.68 13 9 13 C6 9.53846154 6 9.53846154 6 7 C5.01 6.67 4.02 6.34 3 6 C0 2.55555556 0 2.55555556 0 0 Z " fill="#B4AEAC" transform="translate(229,287)"/>
<path d="M0 0 C3 1 3 1 4.24609375 3.1171875 C12 21.06557377 12 21.06557377 12 25 C8.25 26.125 8.25 26.125 6 25 C5.24963806 22.83977833 4.59913051 20.6444534 4 18.4375 C3.48179687 16.53871094 3.48179687 16.53871094 2.953125 14.6015625 C2.63859375 13.41304688 2.3240625 12.22453125 2 11 C1.76796875 10.14148438 1.5359375 9.28296875 1.296875 8.3984375 C0.53993163 5.5112392 0 2.99817982 0 0 Z " fill="#958F8F" transform="translate(203,466)"/>
<path d="M0 0 C5.48422034 1.25867352 8.93993914 3.08759258 13.4375 6.625 C13.97826172 7.04523438 14.51902344 7.46546875 15.07617188 7.8984375 C16.39155586 8.92280733 17.69688093 9.96007247 19 11 C18.67 12.65 18.34 14.3 18 16 C13.69484714 14.55183158 10.68002467 12.38004712 7.1875 9.5 C5.72376953 8.30890625 5.72376953 8.30890625 4.23046875 7.09375 C3.49441406 6.4028125 2.75835937 5.711875 2 5 C2 4.34 2 3.68 2 3 C1.34 3 0.68 3 0 3 C0 2.01 0 1.02 0 0 Z " fill="#C9C5C3" transform="translate(155,359)"/>
<path d="M0 0 C0 0.66 0 1.32 0 2 C-0.66 2.4125 -1.32 2.825 -2 3.25 C-4.3664015 4.90933823 -4.3664015 4.90933823 -4.25 8.1875 C-4.1675 9.115625 -4.085 10.04375 -4 11 C-5.32 11.33 -6.64 11.66 -8 12 C-8.46618554 24.25512304 -8.46618554 24.25512304 -5.55859375 36.08203125 C-5 38 -5 38 -6 41 C-10.50437151 30.52624294 -14.05007996 21.0265262 -9.8125 9.875 C-3.58695652 0 -3.58695652 0 0 0 Z " fill="#918A8B" transform="translate(328,235)"/>
<path d="M0 0 C0.33 0 0.66 0 1 0 C1.33 8.58 1.66 17.16 2 26 C2.57758821 21.15466021 2.57758821 21.15466021 3.13623047 16.30712891 C3.77777778 11.22222222 3.77777778 11.22222222 6 9 C6.2700558 16.8316181 5.23107719 24.27279225 4 32 C3.01 32 2.02 32 1 32 C-0.09828769 28.45811722 -0.11445011 25.1790238 -0.09765625 21.484375 C-0.09443359 20.23398437 -0.09121094 18.98359375 -0.08789062 17.6953125 C-0.07951172 16.39335937 -0.07113281 15.09140625 -0.0625 13.75 C-0.05798828 12.43257813 -0.05347656 11.11515625 -0.04882812 9.7578125 C-0.03704316 6.50516259 -0.02059011 3.25260416 0 0 Z " fill="#898383" transform="translate(264,458)"/>
<path d="M0 0 C3.81684226 1.55500981 6.19195732 4.03595495 9 7 C8.66226562 7.55171875 8.32453125 8.1034375 7.9765625 8.671875 C6.78898739 11.50305405 6.97724297 13.22704656 7.375 16.25 C7.48585938 17.14203125 7.59671875 18.0340625 7.7109375 18.953125 C7.80632812 19.62859375 7.90171875 20.3040625 8 21 C5.34352515 18.34352515 4.67907227 15.72690752 3.4375 12.1875 C3.00308594 10.96417969 2.56867188 9.74085938 2.12109375 8.48046875 C1.20645002 5.64093019 0.49754158 2.9349363 0 0 Z " fill="#9A9291" transform="translate(320,316)"/>
<path d="M0 0 C-0.58158896 4.03477342 -1.86756059 6.85241201 -4 10.3125 C-4.53625 11.19550781 -5.0725 12.07851563 -5.625 12.98828125 C-6.07875 13.65214844 -6.5325 14.31601562 -7 15 C-7.33 15 -7.66 15 -8 15 C-8.1953125 12.98177083 -8.390625 10.96354167 -8.5859375 8.9453125 C-8.86374749 6.77331755 -8.86374749 6.77331755 -11 5 C-9.54462432 4.16151196 -8.08559627 3.32936066 -6.625 2.5 C-5.81289062 2.0359375 -5.00078125 1.571875 -4.1640625 1.09375 C-2 0 -2 0 0 0 Z " fill="#DDD9D8" transform="translate(169,273)"/>
<path d="M0 0 C2.31 0.33 4.62 0.66 7 1 C7 1.66 7 2.32 7 3 C8.65 2.34 10.3 1.68 12 1 C12 1.99 12 2.98 12 4 C11.0409375 4.37125 11.0409375 4.37125 10.0625 4.75 C7.81258459 5.81562433 7.81258459 5.81562433 7.25 8.125 C7.1675 8.74375 7.085 9.3625 7 10 C7.66 10 8.32 10 9 10 C9.33 12.31 9.66 14.62 10 17 C7.60478792 13.88990924 5.43504061 10.67672984 3.3125 7.375 C2.68988281 6.41335938 2.06726563 5.45171875 1.42578125 4.4609375 C0 2 0 2 0 0 Z " fill="#AFACAB" transform="translate(316,281)"/>
<path d="M0 0 C3.57892629 0.51127518 5.51546593 1.37032397 7.734375 4.25390625 C12 11.23125 12 11.23125 12 15 C10.68 14.34 9.36 13.68 8 13 C8 12.34 8 11.68 8 11 C7.01 10.67 6.02 10.34 5 10 C3.61328125 8.22265625 3.61328125 8.22265625 2.3125 6.0625 C1.87550781 5.35222656 1.43851563 4.64195312 0.98828125 3.91015625 C0 2 0 2 0 0 Z " fill="#E4E1DE" transform="translate(179,380)"/>
<path d="M0 0 C5.77378925 0.4811491 9.95859836 2.18467181 15 5 C14.01 5.33 13.02 5.66 12 6 C12.66 7.32 13.32 8.64 14 10 C11.08654095 8.5532709 8.18604692 7.08714225 5.3125 5.5625 C4.52488281 5.15128906 3.73726563 4.74007813 2.92578125 4.31640625 C1 3 1 3 0 0 Z " fill="#A29D9B" transform="translate(118,415)"/>
<path d="M0 0 C0.99 0 1.98 0 3 0 C4.60546875 2.1171875 4.60546875 2.1171875 6.1875 4.875 C6.71730469 5.77992188 7.24710937 6.68484375 7.79296875 7.6171875 C9 10 9 10 9 12 C8.01 12 7.02 12 6 12 C6 10.68 6 9.36 6 8 C4.79438816 8.98267859 4.79438816 8.98267859 4.90234375 10.84765625 C4.91394531 11.57855469 4.92554688 12.30945313 4.9375 13.0625 C4.958125 14.361875 4.97875 15.66125 5 17 C3.03470991 13.54792524 2.2253523 10.11523774 1.375 6.25 C1.11460937 5.07953125 0.85421875 3.9090625 0.5859375 2.703125 C0.39257812 1.81109375 0.19921875 0.9190625 0 0 Z " fill="#B4A7A6" transform="translate(317,353)"/>
<path d="M0 0 C0.99 0.33 1.98 0.66 3 1 C2.34 7.27 1.68 13.54 1 20 C0.67 20 0.34 20 0 20 C-0.33 16.7 -0.66 13.4 -1 10 C-1.66 11.65 -2.32 13.3 -3 15 C-4.28497537 11.14507389 -3.4052209 9.59653164 -2.0625 5.8125 C-1.68222656 4.72582031 -1.30195313 3.63914062 -0.91015625 2.51953125 C-0.60980469 1.68808594 -0.30945313 0.85664063 0 0 Z " fill="#978D8D" transform="translate(272,423)"/>
<path d="M0 0 C0.66 0.33 1.32 0.66 2 1 C0.6875 2.5 0.6875 2.5 -1 4 C-1.99 4 -2.98 4 -4 4 C-4.66 5.65 -5.32 7.3 -6 9 C-6.33 8.34 -6.66 7.68 -7 7 C-7.66 7 -8.32 7 -9 7 C-9.165 7.598125 -9.33 8.19625 -9.5 8.8125 C-11.81276204 12.18527798 -15.19891337 12.8331548 -19 14 C-19 13.34 -19 12.68 -19 12 C-16.79881339 10.43027693 -14.60780103 8.98187197 -12.3125 7.5625 C-11.37374023 6.96985352 -11.37374023 6.96985352 -10.41601562 6.36523438 C-9.18691264 5.59173606 -7.95406138 4.82415735 -6.71728516 4.06298828 C-5.18655742 3.11547782 -3.67571251 2.13601658 -2.16796875 1.15234375 C-1.45253906 0.77207031 -0.73710937 0.39179687 0 0 Z " fill="#ADABAC" transform="translate(154,86)"/>
<path d="M0 0 C0.66 0.99 1.32 1.98 2 3 C4.22498915 3.41570008 4.22498915 3.41570008 6.7890625 3.29296875 C8.20058594 3.2784668 8.20058594 3.2784668 9.640625 3.26367188 C10.62546875 3.23853516 11.6103125 3.21339844 12.625 3.1875 C13.61757813 3.17396484 14.61015625 3.16042969 15.6328125 3.14648438 C18.08908072 3.11105743 20.54427285 3.06166196 23 3 C23 3.33 23 3.66 23 4 C14.91191011 5.60614551 7.2425317 6.26305952 -1 6 C-0.67 4.02 -0.34 2.04 0 0 Z " fill="#948F8E" transform="translate(297,446)"/>
<path d="M0 0 C0.99 0.33 1.98 0.66 3 1 C3.99 0.835 4.98 0.67 6 0.5 C9 0 9 0 12 1 C11.67 1.99 11.34 2.98 11 4 C7.4375 5.6875 7.4375 5.6875 4 7 C4 6.01 4 5.02 4 4 C2.35 3.67 0.7 3.34 -1 3 C-0.67 2.01 -0.34 1.02 0 0 Z " fill="#AEA6A6" transform="translate(100,328)"/>
<path d="M0 0 C0.33 0 0.66 0 1 0 C1 7.26 1 14.52 1 22 C0.67 22 0.34 22 0 22 C-0.33 17.71 -0.66 13.42 -1 9 C-1.99 10.32 -2.98 11.64 -4 13 C-4 11.02 -4 9.04 -4 7 C-3.34 7 -2.68 7 -2 7 C-1.34 4.69 -0.68 2.38 0 0 Z " fill="#B7B3B1" transform="translate(271,431)"/>
<path d="M0 0 C0.66 0.33 1.32 0.66 2 1 C2 1.33 2 1.66 2 2 C2.55429688 1.84402344 3.10859375 1.68804687 3.6796875 1.52734375 C4.40414062 1.33269531 5.12859375 1.13804687 5.875 0.9375 C6.59429687 0.74027344 7.31359375 0.54304687 8.0546875 0.33984375 C10 0 10 0 12 1 C10.70700306 3.88437779 9.34058637 5.87219421 7 8 C7.33 6.35 7.66 4.7 8 3 C4.7 3.66 1.4 4.32 -2 5 C-1 1 -1 1 0 0 Z " fill="#A19A9B" transform="translate(165,200)"/>
<path d="M0 0 C1.6670294 4.09855636 0.28962806 7.80273024 -0.8125 11.875 C-0.99103516 12.56980469 -1.16957031 13.26460938 -1.35351562 13.98046875 C-2.41373051 18.04526373 -3.62430369 22.02853282 -5 26 C-6.04228701 22.7945358 -5.92994213 20.79104681 -5.0390625 17.55859375 C-4.81476563 16.72779297 -4.59046875 15.89699219 -4.359375 15.04101562 C-4.11703125 14.18185547 -3.8746875 13.32269531 -3.625 12.4375 C-3.39039063 11.57447266 -3.15578125 10.71144531 -2.9140625 9.82226562 C-2.0105675 6.51886205 -1.08320175 3.24960525 0 0 Z " fill="#959192" transform="translate(397,373)"/>
<path d="M0 0 C0 1.65 0 3.3 0 5 C-0.33 4.01 -0.66 3.02 -1 2 C-1.66 2 -2.32 2 -3 2 C-3.061875 2.61875 -3.12375 3.2375 -3.1875 3.875 C-4 6 -4 6 -6.5625 7.25 C-7.366875 7.4975 -8.17125 7.745 -9 8 C-9 8.66 -9 9.32 -9 10 C-10.32 10.33 -11.64 10.66 -13 11 C-13 9.02 -13 7.04 -13 5 C-12.34 5.66 -11.68 6.32 -11 7 C-10.38125 6.505 -9.7625 6.01 -9.125 5.5 C-7 4 -7 4 -5 4 C-4.67 3.01 -4.34 2.02 -4 1 C-2 0 -2 0 0 0 Z " fill="#958E91" transform="translate(171,236)"/>
<path d="M0 0 C0.66 0.33 1.32 0.66 2 1 C1.05125 1.7425 0.1025 2.485 -0.875 3.25 C-2.83626218 4.86838417 -3.9139099 5.8278198 -5.0625 8.125 C-6.43581131 10.87162262 -8.26599762 11.73302329 -11 13 C-11.99 12.67 -12.98 12.34 -14 12 C-9.73412126 7.45890328 -4.96387672 3.75264754 0 0 Z " fill="#ADAAAB" transform="translate(133,100)"/>
<path d="M0 0 C3 1 3 1 4.6875 4.125 C6.14581407 7.79357134 6.24159551 11.05393993 6 15 C3.9100302 12.9100302 3.07474358 11.29998384 1.875 8.625 C1.52179688 7.85414063 1.16859375 7.08328125 0.8046875 6.2890625 C0 4 0 4 0 0 Z " fill="#A6A2A1" transform="translate(203,466)"/>
<path d="M0 0 C3.30286086 1.10095362 3.78510901 1.6896019 5.6875 4.4375 C6.34298828 5.36369141 6.34298828 5.36369141 7.01171875 6.30859375 C8 8 8 8 8 10 C3.62140745 9.49477778 1.18348776 6.82172778 -2 4 C-1.34 3.67 -0.68 3.34 0 3 C0 2.01 0 1.02 0 0 Z " fill="#9A9693" transform="translate(148,433)"/>
<path d="M0 0 C1 3 1 3 0.3125 4.98828125 C-1.2019913 7.30959975 -2.75048948 8.57893458 -5 10.1875 C-6.051875 10.95126953 -6.051875 10.95126953 -7.125 11.73046875 C-9 13 -9 13 -11 14 C-9.4722133 10.56247993 -7.49818944 7.81046312 -5 5 C-4.34 5 -3.68 5 -3 5 C-2.67 4.01 -2.34 3.02 -2 2 C-1.34 2 -0.68 2 0 2 C0 1.34 0 0.68 0 0 Z " fill="#ACA4A9" transform="translate(110,120)"/>
<path d="M0 0 C4.85077588 1.11940982 7.777893 2.1334716 11 6 C10.01 6.495 10.01 6.495 9 7 C9 6.34 9 5.68 9 5 C8.01 5 7.02 5 6 5 C5.67 5.66 5.34 6.32 5 7 C4.01 6.34 3.02 5.68 2 5 C2 4.34 2 3.68 2 3 C1.34 3 0.68 3 0 3 C0 2.01 0 1.02 0 0 Z " fill="#AEABA8" transform="translate(155,359)"/>
<path d="M0 0 C5.75 0.875 5.75 0.875 8 2 C7.67 3.65 7.34 5.3 7 7 C4.08482708 5.92598892 2.22189824 5.22189824 0 3 C0 2.01 0 1.02 0 0 Z " fill="#C4BEBD" transform="translate(161,364)"/>
<path d="M0 0 C0.99 1.32 1.98 2.64 3 4 C1.13486103 5.86513897 -0.73737683 7.71982023 -2.625 9.5625 C-5.00641642 11.75959819 -5.00641642 11.75959819 -6 14 C-6.66 14 -7.32 14 -8 14 C-6.6744419 10.37723685 -5.05653045 7.36494652 -2.875 4.1875 C-2.33617188 3.39730469 -1.79734375 2.60710937 -1.2421875 1.79296875 C-0.83226563 1.20128906 -0.42234375 0.60960937 0 0 Z " fill="#AEABAC" transform="translate(92,141)"/>
<path d="M0 0 C1.48819457 0.9019361 2.96532813 1.82214129 4.4375 2.75 C5.26121094 3.26046875 6.08492187 3.7709375 6.93359375 4.296875 C9.21744593 6.1792182 9.65514457 7.1157546 10 10 C5.99864737 9.17213394 3.66464297 7.98465625 1.3125 4.5 C0 2 0 2 0 0 Z " fill="#9D9795" transform="translate(243,301)"/>
<path d="M0 0 C1.70363822 0.22622081 3.41328701 0.40888473 5.125 0.5625 C6.03507812 0.64628906 6.94515625 0.73007813 7.8828125 0.81640625 C8.58148438 0.87699219 9.28015625 0.93757812 10 1 C8 3 8 3 5.13671875 3.01171875 C3.99847656 2.90472656 2.86023438 2.79773438 1.6875 2.6875 C0.55699219 2.58824219 -0.57351563 2.48898438 -1.73828125 2.38671875 C-4.53988656 2.05455237 -7.24635577 1.60445849 -10 1 C-10 0.67 -10 0.34 -10 0 C-2.25 -1.125 -2.25 -1.125 0 0 Z " fill="#908989" transform="translate(257,131)"/>
<path d="M0 0 C0.66 0 1.32 0 2 0 C2 0.66 2 1.32 2 2 C1.34 2.4125 0.68 2.825 0 3.25 C-2.3664015 4.90933823 -2.3664015 4.90933823 -2.25 8.1875 C-2.1675 9.115625 -2.085 10.04375 -2 11 C-3.32 11 -4.64 11 -6 11 C-5.55491959 5.95575532 -3.39019075 3.55556591 0 0 Z " fill="#C3BEC0" transform="translate(326,235)"/>
<path d="M0 0 C0.33 0.66 0.66 1.32 1 2 C-0.77865373 6.82777441 -0.77865373 6.82777441 -3 9 C-6.34197491 9.91002134 -9.54744617 10.0461219 -13 10 C-10 8 -10 8 -7.0625 6.6875 C-3.76411141 4.87002057 -2.14596255 3.05386978 0 0 Z " fill="#A8A0A1" transform="translate(361,219)"/>
<path d="M0 0 C1.65 0 3.3 0 5 0 C4.66226562 0.55171875 4.32453125 1.1034375 3.9765625 1.671875 C2.78898739 4.50305405 2.97724297 6.22704656 3.375 9.25 C3.48585938 10.14203125 3.59671875 11.0340625 3.7109375 11.953125 C3.80632812 12.62859375 3.90171875 13.3040625 4 14 C1.37548383 11.37548383 1.4167132 9.5122172 0.875 5.875 C0.70742188 4.77929688 0.53984375 3.68359375 0.3671875 2.5546875 C0.24601562 1.71164062 0.12484375 0.86859375 0 0 Z " fill="#B8B2B2" transform="translate(324,323)"/>
<path d="M0 0 C-1.11375 0.45375 -2.2275 0.9075 -3.375 1.375 C-6.96199008 2.72465986 -6.96199008 2.72465986 -9 5 C-9 4.34 -9 3.68 -9 3 C-9.5775 3.37125 -10.155 3.7425 -10.75 4.125 C-11.4925 4.41375 -12.235 4.7025 -13 5 C-15.140625 4.0546875 -15.140625 4.0546875 -17 3 C-14.92085336 2.29994051 -12.83648414 1.61537756 -10.75 0.9375 C-9.58984375 0.55464844 -8.4296875 0.17179687 -7.234375 -0.22265625 C-4.19922915 -0.95211763 -2.84296787 -1.11889082 0 0 Z " fill="#A5A2A1" transform="translate(210,66)"/>
<path d="M0 0 C0.99 0.33 1.98 0.66 3 1 C3 4.3 3 7.6 3 11 C3.66 11 4.32 11 5 11 C4.67 12.32 4.34 13.64 4 15 C3.34 15 2.68 15 2 15 C2 10.71 2 6.42 2 2 C1.01 2.33 0.02 2.66 -1 3 C-0.67 2.01 -0.34 1.02 0 0 Z " fill="#8D8989" transform="translate(308,409)"/>
<path d="M0 0 C2.50298434 2.93828597 3.46930939 5.17902761 4 9 C2.68 8.34 1.36 7.68 0 7 C0 6.34 0 5.68 0 5 C-0.99 4.67 -1.98 4.34 -3 4 C-3.33 3.01 -3.66 2.02 -4 1 C-3.34 1 -2.68 1 -2 1 C-1.67 1.66 -1.34 2.32 -1 3 C-0.67 2.01 -0.34 1.02 0 0 Z " fill="#827A76" transform="translate(187,386)"/>
<path d="M0 0 C0.33 0.66 0.66 1.32 1 2 C-0.21484375 4.6015625 -0.21484375 4.6015625 -1.9375 7.625 C-2.78634766 9.12933594 -2.78634766 9.12933594 -3.65234375 10.6640625 C-4.09707031 11.43492187 -4.54179687 12.20578125 -5 13 C-6.03348696 9.89953913 -6.17755913 8.94389782 -5 6 C-4.01 5.67 -3.02 5.34 -2 5 C-2 3.68 -2 2.36 -2 1 C-1.34 0.67 -0.68 0.34 0 0 Z " fill="#9D9A9C" transform="translate(440,351)"/>
<path d="M0 0 C1.98 0.66 3.96 1.32 6 2 C6 2.99 6 3.98 6 5 C4.35 5.33 2.7 5.66 1 6 C0.34 4.35 -0.32 2.7 -1 1 C-0.67 0.67 -0.34 0.34 0 0 Z " fill="#DBD8D7" transform="translate(329,71)"/>
<path d="M0 0 C0.66 0.33 1.32 0.66 2 1 C0.35 5.29 -1.3 9.58 -3 14 C-3.33 14 -3.66 14 -4 14 C-4.21278058 9.53160785 -3.59138085 6.17737474 -2 2 C-1.34 2 -0.68 2 0 2 C0 1.34 0 0.68 0 0 Z " fill="#A39E9E" transform="translate(165,219)"/>
<path d="M0 0 C2.64 0.33 5.28 0.66 8 1 C7.67 2.65 7.34 4.3 7 6 C6.67 5.01 6.34 4.02 6 3 C2.45481116 4.39759905 2.45481116 4.39759905 -1 6 C-0.67 4.02 -0.34 2.04 0 0 Z " fill="#B5B3B4" transform="translate(287,104)"/>
<path d="M0 0 C0.66 0.33 1.32 0.66 2 1 C1.38125 2.010625 0.7625 3.02125 0.125 4.0625 C-1.92943955 7.63227085 -3.02269575 11.009341 -4 15 C-4.33 15 -4.66 15 -5 15 C-4.93989582 13.06164034 -4.85108283 11.12415509 -4.75 9.1875 C-4.70359375 8.10855469 -4.6571875 7.02960938 -4.609375 5.91796875 C-4 3 -4 3 -1.953125 1.11328125 C-0.98632812 0.56220703 -0.98632812 0.56220703 0 0 Z " fill="#989493" transform="translate(191,98)"/>
<path d="M0 0 C0.66 0 1.32 0 2 0 C2.67756882 1.55780332 3.34159457 3.12150096 4 4.6875 C4.37125 5.55761719 4.7425 6.42773438 5.125 7.32421875 C6.01870488 10.0572002 6.16449676 12.14700934 6 15 C3.36177976 11.89621148 2.29634269 9.18537076 1.3125 5.25 C1.06113281 4.26515625 0.80976562 3.2803125 0.55078125 2.265625 C0.36902344 1.51796875 0.18726562 0.7703125 0 0 Z " fill="#878283" transform="translate(64,324)"/>
<path d="M0 0 C1.98 1.65 3.96 3.3 6 5 C5.67 5.66 5.34 6.32 5 7 C4.01 6.34 3.02 5.68 2 5 C2.99 6.485 2.99 6.485 4 8 C2.68 7.34 1.36 6.68 0 6 C0 5.34 0 4.68 0 4 C-0.66 4 -1.32 4 -2 4 C-2 3.34 -2 2.68 -2 2 C-1.34 2 -0.68 2 0 2 C0 1.34 0 0.68 0 0 Z " fill="#8E8886" transform="translate(242,298)"/>
<path d="M0 0 C2.375 0.25 2.375 0.25 5 1 C6.375 2.9375 6.375 2.9375 7 5 C6.67 5.66 6.34 6.32 6 7 C2.58841744 5.86280581 1.88145399 4.95657056 0 2 C0 1.34 0 0.68 0 0 Z " fill="#7E6E6D" transform="translate(229,287)"/>
<path d="M0 0 C0.33 0.66 0.66 1.32 1 2 C0.0126546 3.67419438 -0.98812105 5.34051852 -2 7 C-2 7.99 -2 8.98 -2 10 C-3.32 9.67 -4.64 9.34 -6 9 C-5.34 8.01 -4.68 7.02 -4 6 C-3.61500109 4.34450469 -3.27206865 2.6777567 -3 1 C-2.01 0.67 -1.02 0.34 0 0 Z " fill="#A29B9B" transform="translate(159,271)"/>
<path d="M0 0 C1.28497537 3.85492611 0.4052209 5.40346836 -0.9375 9.1875 C-1.31777344 10.27417969 -1.69804687 11.36085938 -2.08984375 12.48046875 C-2.39019531 13.31191406 -2.69054687 14.14335937 -3 15 C-3.33 15 -3.66 15 -4 15 C-4.33 13.02 -4.66 11.04 -5 9 C-4.34 9 -3.68 9 -3 9 C-2.01 6.03 -1.02 3.06 0 0 Z " fill="#999796" transform="translate(167,247)"/>
<path d="M0 0 C1.0546875 1.859375 1.0546875 1.859375 2 4 C1.125 6.25 1.125 6.25 0 8 C-0.66 8 -1.32 8 -2 8 C-2.33 8.99 -2.66 9.98 -3 11 C-3.33 10.34 -3.66 9.68 -4 9 C-3.22265625 6.8359375 -3.22265625 6.8359375 -2.0625 4.375 C-1.68222656 3.55773437 -1.30195312 2.74046875 -0.91015625 1.8984375 C-0.60980469 1.27195313 -0.30945313 0.64546875 0 0 Z " fill="#A29EA0" transform="translate(73,173)"/>
<path d="M0 0 C2.66735273 2.48952921 4.55746343 4.63408134 6 8 C4.02 8 2.04 8 0 8 C0 5.36 0 2.72 0 0 Z " fill="#B5B5B3" transform="translate(424,142)"/>
<path d="M0 0 C2 2 2 2 2 5 C2.99 5.33 3.98 5.66 5 6 C4.67 6.66 4.34 7.32 4 8 C2 6.625 2 6.625 0 5 C0 4.34 0 3.68 0 3 C-1.32 3.33 -2.64 3.66 -4 4 C-4 3.01 -4 2.02 -4 1 C-2.125 0.375 -2.125 0.375 0 0 Z " fill="#ADABAB" transform="translate(335,419)"/>
<path d="M0 0 C2.00720923 0.28674418 4.0085944 0.61866701 6 1 C5 3 5 3 1.9375 4.125 C0.4834375 4.558125 0.4834375 4.558125 -1 5 C-1 1 -1 1 0 0 Z " fill="#C3BEBE" transform="translate(117,315)"/>
<path d="M0 0 C0.33 0.99 0.66 1.98 1 3 C2.65 2.67 4.3 2.34 6 2 C2.71195019 4.91227269 0.40114397 6.49701212 -4 7 C-3.34 5.68 -2.68 4.36 -2 3 C-1.34 3 -0.68 3 0 3 C0 2.01 0 1.02 0 0 Z " fill="#AEADAA" transform="translate(133,306)"/>
<path d="M0 0 C3.00617269 3.00617269 2.59585316 5.82381598 3 10 C1.35 10 -0.3 10 -2 10 C-1.67 9.34 -1.34 8.68 -1 8 C-0.12948738 5.09829126 0 3.13850284 0 0 Z " fill="#B5B2AF" transform="translate(452,197)"/>
<path d="M0 0 C5.65394631 -0.34615998 9.03006806 0.56574762 14 3 C11.01316063 4.49341969 9.04839022 3.40648676 5.875 2.5625 C4.77929688 2.27503906 3.68359375 1.98757812 2.5546875 1.69140625 C1.71164062 1.46324219 0.86859375 1.23507813 0 1 C0 0.67 0 0.34 0 0 Z " fill="#93908F" transform="translate(308,135)"/>
<path d="M0 0 C0.53625 0.2475 1.0725 0.495 1.625 0.75 C-1.0348561 4.19216672 -4.27788286 4.74504674 -8.375 5.75 C-8.375 5.09 -8.375 4.43 -8.375 3.75 C-3.23290173 -0.34030544 -3.23290173 -0.34030544 0 0 Z " fill="#A4A3A3" transform="translate(143.375,94.25)"/>
<path d="M0 0 C0.99 0 1.98 0 3 0 C3.66 1.65 4.32 3.3 5 5 C4.34 5 3.68 5 3 5 C3 6.65 3 8.3 3 10 C2.67 10 2.34 10 2 10 C1.34 6.7 0.68 3.4 0 0 Z " fill="#7C7874" transform="translate(317,353)"/>
<path d="M0 0 C-0.33 1.65 -0.66 3.3 -1 5 C-1.33 4.34 -1.66 3.68 -2 3 C-2.7425 3.515625 -3.485 4.03125 -4.25 4.5625 C-7 6 -7 6 -9.171875 5.58984375 C-9.77515625 5.39519531 -10.3784375 5.20054687 -11 5 C-9.54462432 4.16151196 -8.08559627 3.32936066 -6.625 2.5 C-5.81289062 2.0359375 -5.00078125 1.571875 -4.1640625 1.09375 C-2 0 -2 0 0 0 Z " fill="#8A8786" transform="translate(169,273)"/>
<path d="M0 0 C0.99 0.33 1.98 0.66 3 1 C3 1.99 3 2.98 3 4 C2.01 4 1.02 4 0 4 C0.33 4.99 0.66 5.98 1 7 C0.34 7 -0.32 7 -1 7 C-1.625 4.625 -1.625 4.625 -2 2 C-1.34 1.34 -0.68 0.68 0 0 Z " fill="#EBE7E7" transform="translate(328,325)"/>
<path d="M0 0 C0.99 0.99 1.98 1.98 3 3 C2.01 4.485 2.01 4.485 1 6 C-0.98 4.68 -2.96 3.36 -5 2 C-4.01 1.67 -3.02 1.34 -2 1 C-1.34 0.67 -0.68 0.34 0 0 Z " fill="#B9B6B6" transform="translate(207,97)"/>
<path d="M0 0 C2.35953094 2.35953094 2.49141413 3.77895617 3 7 C1.125 7.625 1.125 7.625 -1 8 C-1.66 7.34 -2.32 6.68 -3 6 C-2.01 5.67 -1.02 5.34 0 5 C0 3.35 0 1.7 0 0 Z " fill="#998989" transform="translate(212,484)"/>
<path d="M0 0 C0.66 0 1.32 0 2 0 C2.33 2.31 2.66 4.62 3 7 C2.01 7.33 1.02 7.66 0 8 C0 5.36 0 2.72 0 0 Z " fill="#F2EDED" transform="translate(209,482)"/>
<path d="M0 0 C0.99 0.33 1.98 0.66 3 1 C2.67 5.29 2.34 9.58 2 14 C1.67 14 1.34 14 1 14 C0.93941406 13.30132812 0.87882812 12.60265625 0.81640625 11.8828125 C0.73261719 10.97273438 0.64882813 10.06265625 0.5625 9.125 C0.48128906 8.22007812 0.40007812 7.31515625 0.31640625 6.3828125 C0.13010715 3.98889139 0.13010715 3.98889139 -1 2 C-0.67 1.34 -0.34 0.68 0 0 Z " fill="#655B5A" transform="translate(272,423)"/>
<path d="M0 0 C2.475 0.99 2.475 0.99 5 2 C4.01 2.33 3.02 2.66 2 3 C2.66 4.32 3.32 5.64 4 7 C1.53199953 5.84826645 -0.04783565 4.95216435 -2 3 C-1.34 2.67 -0.68 2.34 0 2 C0 1.34 0 0.68 0 0 Z " fill="#817E7C" transform="translate(128,418)"/>
<path d="M0 0 C0.33 0 0.66 0 1 0 C1.33 2.31 1.66 4.62 2 7 C0.35 7.66 -1.3 8.32 -3 9 C-2.01 6.03 -1.02 3.06 0 0 Z " fill="#B1B0B1" transform="translate(405,352)"/>
<path d="M0 0 C2 4 2 4 1.3125 6.1875 C0 8 0 8 -3 9 C-2.01 6.03 -1.02 3.06 0 0 Z " fill="#ADA6A5" transform="translate(316,411)"/>
<path d="M0 0 C0.99 0.66 1.98 1.32 3 2 C0.03 4.475 0.03 4.475 -3 7 C-3.33 6.01 -3.66 5.02 -4 4 C-2.68 3.34 -1.36 2.68 0 2 C0 1.34 0 0.68 0 0 Z " fill="#A09D9E" transform="translate(409,393)"/>
<path d="M0 0 C1.32 1.32 2.64 2.64 4 4 C2.68 4 1.36 4 0 4 C-0.33 4.99 -0.66 5.98 -1 7 C-1.99 5.68 -2.98 4.36 -4 3 C-3.01 3 -2.02 3 -1 3 C-0.67 2.01 -0.34 1.02 0 0 Z " fill="#878281" transform="translate(174,371)"/>
<path d="M0 0 C2.31 0.33 4.62 0.66 7 1 C5.68 1.33 4.36 1.66 3 2 C3.33 3.32 3.66 4.64 4 6 C2.62437146 4.71034824 1.29233607 3.37310707 0 2 C0 1.34 0 0.68 0 0 Z " fill="#7B7576" transform="translate(316,281)"/>
<path d="M0 0 C0.66 0 1.32 0 2 0 C2.33 0.66 2.66 1.32 3 2 C4.98 2 6.96 2 9 2 C9 2.99 9 3.98 9 5 C5.625 4.75 5.625 4.75 2 4 C0.5625 1.9375 0.5625 1.9375 0 0 Z " fill="#8C8A8A" transform="translate(290,157)"/>
<path d="M0 0 C0.33 0.66 0.66 1.32 1 2 C1.66 2.33 2.32 2.66 3 3 C1.02 4.32 -0.96 5.64 -3 7 C-3.66 6.67 -4.32 6.34 -5 6 C-4.34 5.01 -3.68 4.02 -3 3 C-2.01 3 -1.02 3 0 3 C0 2.01 0 1.02 0 0 Z " fill="#A09C9C" transform="translate(148,299)"/>
<path d="M0 0 C0.6875 1.6875 0.6875 1.6875 1 4 C-0.3125 6.75 -0.3125 6.75 -2 9 C-2.66 9 -3.32 9 -4 9 C-2.94124926 5.59687262 -1.99097846 2.98646769 0 0 Z " fill="#8F8D8D" transform="translate(370,199)"/>
<path d="M0 0 C0.33 0 0.66 0 1 0 C1 2.31 1 4.62 1 7 C1.99 7.33 2.98 7.66 4 8 C2.35 8.33 0.7 8.66 -1 9 C-0.67 6.03 -0.34 3.06 0 0 Z " fill="#837F80" transform="translate(389,405)"/>
<path d="M0 0 C1.32 0.33 2.64 0.66 4 1 C1.03 3.475 1.03 3.475 -2 6 C-2 4.68 -2 3.36 -2 2 C-1.34 2 -0.68 2 0 2 C0 1.34 0 0.68 0 0 Z " fill="#8F8D8E" transform="translate(402,400)"/>
<path d="M0 0 C0.66 0.33 1.32 0.66 2 1 C2 2.65 2 4.3 2 6 C1.34 5.67 0.68 5.34 0 5 C0 4.34 0 3.68 0 3 C-1.32 2.67 -2.64 2.34 -4 2 C-2.125 0.9375 -2.125 0.9375 0 0 Z " fill="#C9C3C0" transform="translate(185,384)"/>
<path d="M0 0 C1.32 0 2.64 0 4 0 C4.66 1.32 5.32 2.64 6 4 C3.03 3.505 3.03 3.505 0 3 C0 2.01 0 1.02 0 0 Z " fill="#EDE9E7" transform="translate(174,375)"/>
<path d="M0 0 C2.31 0.66 4.62 1.32 7 2 C5.625 3.5 5.625 3.5 4 5 C3.34 5 2.68 5 2 5 C2 4.34 2 3.68 2 3 C1.34 3 0.68 3 0 3 C0 2.01 0 1.02 0 0 Z " fill="#706E6D" transform="translate(155,359)"/>
<path d="M0 0 C0.66 0 1.32 0 2 0 C1.67 2.97 1.34 5.94 1 9 C0.67 9 0.34 9 0 9 C-1.125 2.25 -1.125 2.25 0 0 Z " fill="#CFCBCC" transform="translate(168,238)"/>
</svg>
